<svg width="257" height="57" viewBox="0 0 257 57" fill="none" xmlns="http://www.w3.org/2000/svg">
<path fill-rule="evenodd" clip-rule="evenodd" d="M28.008 1.88869C28.008 1.07967 27.3522 0.423828 26.5432 0.423828H12.9506C12.1416 0.423828 11.4858 1.07967 11.4858 1.88869V11.1661C11.4858 11.9751 12.1416 12.631 12.9506 12.631H23.9822C24.7913 12.631 25.4471 13.2868 25.4471 14.0958V20.9318C25.4471 21.7409 24.7913 22.3967 23.9822 22.3967H12.9506C12.1416 22.3967 11.4858 23.0525 11.4858 23.8616V33.139C11.4858 33.948 12.1416 34.6039 12.9506 34.6039H23.9822C24.7913 34.6039 25.4471 35.2597 25.4471 36.0687V42.9046C25.4471 43.7136 24.7913 44.3695 23.9822 44.3695H12.9506C12.1416 44.3695 11.4858 45.0253 11.4858 45.8343V55.1118C11.4858 55.9208 12.1416 56.5766 12.9506 56.5766H26.5432C27.3522 56.5766 28.008 55.9208 28.008 55.1118V46.5669C28.008 45.7579 28.6639 45.102 29.4729 45.102H40.5045C41.3135 45.102 41.9694 44.4462 41.9694 43.6372V36.0687C41.9694 35.2597 42.6252 34.6039 43.4342 34.6039H56.2833C57.0923 34.6039 57.7481 33.948 57.7481 33.139V23.8616C57.7481 23.0525 57.0923 22.3967 56.2833 22.3967H43.4342C42.6252 22.3967 41.9694 21.7409 41.9694 20.9318V12.3869C41.9694 11.5779 41.3135 10.9221 40.5045 10.9221H29.4729C28.6639 10.9221 28.008 10.2663 28.008 9.45723V1.88869ZM28.008 31.43C28.008 32.239 28.6639 32.8949 29.4729 32.8949H39.761C40.57 32.8949 41.2259 32.239 41.2259 31.43V24.5941C41.2259 23.7851 40.57 23.1292 39.761 23.1292H29.4729C28.6639 23.1292 28.008 23.7851 28.008 24.5941V31.43Z" fill="white"/>
<rect y="12.8669" width="9.25247" height="9.25247" rx="1.59525" fill="white"/>
<rect y="34.8811" width="9.25247" height="9.25247" rx="1.59525" fill="white"/>
<path d="M86.1299 42H76.1066V13.7832H86.1299C94.8476 13.7832 100.407 19.1738 100.407 27.8916C100.407 36.6093 94.8476 42 86.1299 42ZM86.1299 17.8683H80.655V37.9149H86.1299C92.8682 37.9149 95.5636 35.1353 95.5636 27.8916C95.5636 20.6478 92.8682 17.8683 86.1299 17.8683ZM108.447 18.4158H103.941L103.899 13.7832H108.447V18.4158ZM108.49 42H103.941V20.9426H108.49V42ZM120.589 40.0206C114.819 40.0206 111.618 36.2303 111.618 30.3342C111.618 24.4382 114.861 20.6478 120.757 20.6478C124.126 20.6478 126.737 22.0797 127.748 24.5224H127.917V21.069H132.086V40.4839C132.086 46.6747 128.464 49.5806 122.357 49.5806C116.419 49.5806 112.713 46.759 112.713 41.7052H117.219C117.219 44.569 118.272 45.5376 122.484 45.5376C126.569 45.5376 127.58 44.3584 127.58 40.4839V36.3145H127.411C126.443 38.336 124 40.0206 120.589 40.0206ZM116.167 30.3342C116.167 34.6299 117.935 36.1461 121.894 36.1461C125.305 36.1461 127.58 34.5036 127.58 30.9659V29.6604C127.58 26.1649 125.305 24.5224 121.81 24.5224C117.893 24.5224 116.167 26.0385 116.167 30.3342ZM140.815 18.4158H136.309L136.266 13.7832H140.815V18.4158ZM140.857 42H136.309V20.9426H140.857V42ZM153.629 42C148.954 42 146.512 40.2733 146.512 35.5565V24.8593H143.016V21.069H146.596L147.564 15.8889H151.06V21.069H157.377V24.8593H151.06V35.3459C151.06 37.5358 151.986 37.9149 154.808 37.9149H157.377V41.621C156.493 41.8315 155.061 42 153.629 42ZM166.102 42.4211C162.354 42.4211 159.448 40.4839 159.448 36.8199C159.448 33.3665 161.975 31.5556 166.439 30.9238L173.767 29.8289V28.6918C173.767 25.5753 172.335 24.6487 169.05 24.6487C165.723 24.6487 164.417 25.7016 164.417 28.4812V29.1129H160.037V28.6918C160.037 24.017 163.701 20.6478 169.302 20.6478C175.156 20.6478 178.104 24.1855 178.104 29.2814V42H173.893V38.7151H173.682C172.461 40.6944 170.061 42.4211 166.102 42.4211ZM163.87 36.483C163.87 38.1254 164.923 38.7993 167.576 38.7993C170.524 38.7993 173.767 37.6201 173.767 33.4086V33.0296L167.113 34.0403C164.712 34.3772 163.87 34.9247 163.87 36.483ZM187.008 42H182.46V13.7832H187.008V42ZM196.989 42.4211C193.24 42.4211 190.334 40.4839 190.334 36.8199C190.334 33.3665 192.861 31.5556 197.326 30.9238L204.653 29.8289V28.6918C204.653 25.5753 203.222 24.6487 199.937 24.6487C196.61 24.6487 195.304 25.7016 195.304 28.4812V29.1129H190.924V28.6918C190.924 24.017 194.588 20.6478 200.189 20.6478C206.043 20.6478 208.991 24.1855 208.991 29.2814V42H204.78V38.7151H204.569C203.348 40.6944 200.947 42.4211 196.989 42.4211ZM194.757 36.483C194.757 38.1254 195.809 38.7993 198.463 38.7993C201.411 38.7993 204.653 37.6201 204.653 33.4086V33.0296L197.999 34.0403C195.599 34.3772 194.757 34.9247 194.757 36.483ZM217.516 42H213.347V13.7832H217.895V24.3961H217.979C218.906 22.5009 221.306 20.6478 225.012 20.6478C230.782 20.6478 233.814 24.9014 233.814 31.5134C233.814 38.1676 230.614 42.4211 224.76 42.4211C221.138 42.4211 218.695 40.9892 217.684 38.5466H217.516V42ZM217.895 33.4086C217.895 36.9041 219.916 38.5466 223.58 38.5466C227.623 38.5466 229.308 36.6935 229.308 31.5134C229.308 26.3754 227.581 24.5224 223.58 24.5224C219.916 24.5224 217.895 26.1649 217.895 29.6604V33.4086ZM246.249 42.4211C240.143 42.4211 236.942 40.0206 236.942 34.9247V34.8405H241.322V35.5986C241.322 37.8728 242.333 38.7151 246.334 38.7151C249.703 38.7151 250.334 37.957 250.334 36.3987C250.334 34.7142 249.324 34.2088 246.249 33.6613L243.006 33.1138C239.258 32.44 236.9 30.7554 236.9 26.9651C236.9 23.1747 240.016 20.6478 245.491 20.6478C250.419 20.6478 254.125 23.0905 254.125 27.8495V28.2285H249.787V27.7231C249.787 25.7858 249.113 24.3961 245.365 24.3961C242.038 24.3961 241.238 25.2805 241.238 26.8808C241.238 28.4812 241.996 28.9444 244.944 29.534L248.481 30.2079C252.524 31.0081 254.63 32.819 254.63 36.2724C254.63 40.147 251.556 42.4211 246.249 42.4211Z" fill="white"/>
</svg>
